# xmcd
#
# Track frame offsets:
#	150
#	8808
#	28245
#	45600
#	58100
#	74627
#	92076
#	118674
#	139254
#	162002
#	177866
#	192571
#	212910
#	228618
#	245211
#
# Disc length: 3423 seconds
#
# Revision: 1
# Processed by: cddbd v1.5.2PL0 Copyright (c) Steve Scherf et al.
# Submitted via: audiograbber 1.83.01
#
DISCID=e40d5d0f
DTITLE=The Lemongrove - Four Old Coats
DYEAR=2005
DGENRE=Blues
TTITLE0=Unsquare Dance
TTITLE1=Lets Face the Music and Dance
TTITLE2=Shop Till You Bop
TTITLE3=Music to Watch Girls By
TTITLE4=Take Five
TTITLE5=Milestones
TTITLE6=Suicide Chump
TTITLE7=Blue Rondo a la Turk
TTITLE8=Summertime
TTITLE9=I Just Wanna Make Love to You
TTITLE10=So What
TTITLE11=Stardust
TTITLE12=Toccata
TTITLE13=Bourbon Street
TTITLE14=Down By The River
EXTD=Recorded in Dorset, live and studio tracks.
EXTT0=
EXTT1=
EXTT2=
EXTT3=
EXTT4=
EXTT5=
EXTT6=
EXTT7=
EXTT8=
EXTT9=
EXTT10=
EXTT11=
EXTT12=
EXTT13=
EXTT14=
PLAYORDER=
